<mxfile host="app.diagrams.net" modified="2022-01-18T09:23:21.216Z" agent="5.0 (Windows NT 10.0; Win64; x64) AppleWebKit/537.36 (KHTML, like Gecko) Chrome/97.0.4692.71 Safari/537.36" etag="gkka0OPlY3_rFAyjU1V5" version="16.2.7" type="github">
  <diagram id="9A8x0d2yEyUuw7XMHzKb" name="Page-1">
    <mxGraphModel dx="2946" dy="1089" grid="1" gridSize="10" guides="1" tooltips="1" connect="1" arrows="1" fold="1" page="1" pageScale="1" pageWidth="827" pageHeight="1169" background="#114B5F" math="0" shadow="0">
      <root>
        <mxCell id="0" />
        <mxCell id="1" parent="0" />
        <mxCell id="AWVnZwkp75dp_-weQAZT-18" value="&lt;span style=&quot;color: rgb(51 , 51 , 51) ; font-family: &amp;#34;helvetica neue&amp;#34; , &amp;#34;helvetica&amp;#34; , &amp;#34;arial&amp;#34; , sans-serif ; font-size: 19px ; background-color: rgb(255 , 255 , 255)&quot;&gt;二氧化碳溶于水产生了碳酸。&lt;/span&gt;&lt;br style=&quot;box-sizing: content-box ; color: rgb(51 , 51 , 51) ; font-family: &amp;#34;helvetica neue&amp;#34; , &amp;#34;helvetica&amp;#34; , &amp;#34;arial&amp;#34; , sans-serif ; font-size: 19px ; background-color: rgb(255 , 255 , 255)&quot;&gt;&lt;span style=&quot;color: rgb(51 , 51 , 51) ; font-family: &amp;#34;helvetica neue&amp;#34; , &amp;#34;helvetica&amp;#34; , &amp;#34;arial&amp;#34; , sans-serif ; font-size: 19px ; background-color: rgb(255 , 255 , 255)&quot;&gt;碳酸的电离很弱，暂不考虑。&lt;/span&gt;&lt;br style=&quot;box-sizing: content-box ; color: rgb(51 , 51 , 51) ; font-family: &amp;#34;helvetica neue&amp;#34; , &amp;#34;helvetica&amp;#34; , &amp;#34;arial&amp;#34; , sans-serif ; font-size: 19px ; background-color: rgb(255 , 255 , 255)&quot;&gt;&lt;span style=&quot;color: rgb(51 , 51 , 51) ; font-family: &amp;#34;helvetica neue&amp;#34; , &amp;#34;helvetica&amp;#34; , &amp;#34;arial&amp;#34; , sans-serif ; font-size: 19px ; background-color: rgb(255 , 255 , 255)&quot;&gt;碳酸&lt;/span&gt;&lt;span style=&quot;color: rgb(51 , 51 , 51) ; font-family: &amp;#34;helvetica neue&amp;#34; , &amp;#34;helvetica&amp;#34; , &amp;#34;arial&amp;#34; , &amp;#34;pingfang sc&amp;#34; , &amp;#34;hiragino sans gb&amp;#34; , &amp;#34;microsoft yahei&amp;#34; , &amp;#34;wenquanyi micro hei&amp;#34; , sans-serif ; font-size: 19px ; text-indent: 28px ; background-color: rgb(255 , 255 , 255)&quot;&gt;碳酸是二元弱酸，会分步电离，有微腐蚀性。&lt;br&gt;&lt;/span&gt;&lt;span style=&quot;color: rgb(51 , 51 , 51) ; font-family: &amp;#34;helvetica neue&amp;#34; , &amp;#34;helvetica&amp;#34; , &amp;#34;arial&amp;#34; , sans-serif ; font-size: 19px ; background-color: rgb(255 , 255 , 255)&quot;&gt;有了碳酸氢根。海缸中的生物就有可利用的钙了。&lt;/span&gt;&lt;br style=&quot;box-sizing: content-box ; color: rgb(51 , 51 , 51) ; font-family: &amp;#34;helvetica neue&amp;#34; , &amp;#34;helvetica&amp;#34; , &amp;#34;arial&amp;#34; , sans-serif ; font-size: 19px ; background-color: rgb(255 , 255 , 255)&quot;&gt;&lt;span style=&quot;color: rgb(51 , 51 , 51) ; font-family: &amp;#34;helvetica neue&amp;#34; , &amp;#34;helvetica&amp;#34; , &amp;#34;arial&amp;#34; , sans-serif ; font-size: 19px ; background-color: rgb(255 , 255 , 255)&quot;&gt;平常测试的KH值就是反应 &lt;/span&gt;&lt;span style=&quot;font-family: &amp;#34;helvetica neue&amp;#34; , &amp;#34;helvetica&amp;#34; , &amp;#34;arial&amp;#34; , sans-serif ; font-size: 19px&quot;&gt;&lt;span style=&quot;background-color: rgb(33 , 63 , 255) ; font-size: 19px&quot;&gt;HCO&lt;sub style=&quot;font-size: 19px&quot;&gt;3&lt;/sub&gt;&lt;sup style=&quot;font-size: 19px&quot;&gt;-&lt;/sup&gt;&lt;/span&gt;&lt;font color=&quot;#333333&quot; style=&quot;background-color: rgb(255 , 255 , 255) ; font-size: 19px&quot;&gt; 浓度的数值，即 &lt;/font&gt;&lt;font style=&quot;background-color: rgb(33 , 63 , 255) ; font-size: 19px&quot;&gt;10ppm&lt;/font&gt;&lt;font color=&quot;#333333&quot; style=&quot;background-color: rgb(255 , 255 , 255) ; font-size: 19px&quot;&gt; 为一度。&lt;/font&gt;&lt;/span&gt;&lt;br style=&quot;box-sizing: content-box ; color: rgb(51 , 51 , 51) ; font-family: &amp;#34;helvetica neue&amp;#34; , &amp;#34;helvetica&amp;#34; , &amp;#34;arial&amp;#34; , sans-serif ; font-size: 19px ; background-color: rgb(255 , 255 , 255)&quot;&gt;&lt;span style=&quot;color: rgb(51 , 51 , 51) ; font-family: &amp;#34;helvetica neue&amp;#34; , &amp;#34;helvetica&amp;#34; , &amp;#34;arial&amp;#34; , sans-serif ; font-size: 19px ; background-color: rgb(255 , 255 , 255)&quot;&gt;然后&lt;/span&gt;&lt;span style=&quot;color: rgb(51 , 51 , 51) ; font-family: &amp;#34;helvetica neue&amp;#34; , &amp;#34;helvetica&amp;#34; , &amp;#34;arial&amp;#34; , sans-serif ; background-color: rgb(255 , 255 , 255) ; font-size: 19px&quot;&gt;&amp;nbsp;&lt;/span&gt;&lt;span style=&quot;background-color: rgb(33 , 63 , 255) ; font-size: 19px&quot;&gt;&lt;span style=&quot;font-family: &amp;#34;helvetica neue&amp;#34; , &amp;#34;helvetica&amp;#34; , &amp;#34;arial&amp;#34; , sans-serif ; font-size: 19px&quot;&gt;HCO&lt;/span&gt;&lt;sub style=&quot;font-family: &amp;#34;helvetica neue&amp;#34; , &amp;#34;helvetica&amp;#34; , &amp;#34;arial&amp;#34; , sans-serif ; font-size: 19px&quot;&gt;3&lt;/sub&gt;&lt;sup style=&quot;font-family: &amp;#34;helvetica neue&amp;#34; , &amp;#34;helvetica&amp;#34; , &amp;#34;arial&amp;#34; , sans-serif ; font-size: 19px&quot;&gt;-&lt;/sup&gt;&lt;/span&gt;&lt;span style=&quot;color: rgb(51 , 51 , 51) ; font-family: &amp;#34;helvetica neue&amp;#34; , &amp;#34;helvetica&amp;#34; , &amp;#34;arial&amp;#34; , sans-serif ; background-color: rgb(255 , 255 , 255) ; font-size: 19px&quot;&gt;&amp;nbsp;&lt;/span&gt;&lt;span style=&quot;color: rgb(51 , 51 , 51) ; font-family: &amp;#34;helvetica neue&amp;#34; , &amp;#34;helvetica&amp;#34; , &amp;#34;arial&amp;#34; , sans-serif ; font-size: 19px ; background-color: rgb(255 , 255 , 255)&quot;&gt;在水中有会水解（电离很弱暂时不考虑了，碳酸钙的溶解平衡时会用到），水解反应式如下&lt;/span&gt;&lt;br style=&quot;box-sizing: content-box ; color: rgb(51 , 51 , 51) ; font-family: &amp;#34;helvetica neue&amp;#34; , &amp;#34;helvetica&amp;#34; , &amp;#34;arial&amp;#34; , sans-serif ; font-size: 19px ; background-color: rgb(255 , 255 , 255)&quot;&gt;&lt;br style=&quot;box-sizing: content-box ; color: rgb(51 , 51 , 51) ; font-family: &amp;#34;helvetica neue&amp;#34; , &amp;#34;helvetica&amp;#34; , &amp;#34;arial&amp;#34; , sans-serif ; font-size: 19px ; background-color: rgb(255 , 255 , 255)&quot;&gt;&lt;span style=&quot;color: rgb(51 , 51 , 51) ; font-family: &amp;#34;helvetica neue&amp;#34; , &amp;#34;helvetica&amp;#34; , &amp;#34;arial&amp;#34; , sans-serif ; font-size: 19px ; background-color: rgb(255 , 255 , 255)&quot;&gt;&lt;br style=&quot;font-size: 19px&quot;&gt;这个就是为什么碳酸氢钠（小苏打&amp;nbsp;&lt;/span&gt;&lt;span style=&quot;font-family: &amp;#34;arial&amp;#34; , sans-serif ; background-color: rgb(33 , 63 , 255) ; font-size: 19px&quot;&gt;&lt;font style=&quot;font-size: 19px&quot;&gt;NaHCO₃&lt;/font&gt;&lt;/span&gt;&lt;span style=&quot;color: rgb(51 , 51 , 51) ; font-family: &amp;#34;helvetica neue&amp;#34; , &amp;#34;helvetica&amp;#34; , &amp;#34;arial&amp;#34; , sans-serif ; font-size: 19px ; background-color: rgb(255 , 255 , 255)&quot;&gt;&amp;nbsp;水溶液为什么显碱性的原因）&lt;/span&gt;&lt;br style=&quot;box-sizing: content-box ; color: rgb(51 , 51 , 51) ; font-family: &amp;#34;helvetica neue&amp;#34; , &amp;#34;helvetica&amp;#34; , &amp;#34;arial&amp;#34; , sans-serif ; font-size: 19px ; background-color: rgb(255 , 255 , 255)&quot;&gt;&lt;span style=&quot;color: rgb(51 , 51 , 51) ; font-family: &amp;#34;helvetica neue&amp;#34; , &amp;#34;helvetica&amp;#34; , &amp;#34;arial&amp;#34; , sans-serif ; font-size: 19px ; background-color: rgb(255 , 255 , 255)&quot;&gt;这些化学反应平衡分析完了，下面就分析一下，加添加剂的变化。&lt;/span&gt;" style="text;html=1;align=left;verticalAlign=middle;resizable=0;points=[];autosize=1;strokeColor=none;fillColor=none;fontSize=19;fontColor=#FFFFFF;" vertex="1" parent="1">
          <mxGeometry x="20" y="120" width="880" height="260" as="geometry" />
        </mxCell>
        <mxCell id="AWVnZwkp75dp_-weQAZT-1" value="&lt;span style=&quot;color: rgb(51, 51, 51); font-family: &amp;quot;helvetica neue&amp;quot;, helvetica, arial, sans-serif; font-size: 26px; font-style: normal; font-weight: 400; letter-spacing: normal; text-indent: 0px; text-transform: none; word-spacing: 0px; display: inline; float: none;&quot;&gt;CO₂+H₂O&amp;nbsp;&lt;span style=&quot;font-family: &amp;quot;helvetica neue&amp;quot;, helvetica, arial, &amp;quot;pingfang sc&amp;quot;, &amp;quot;hiragino sans gb&amp;quot;, &amp;quot;microsoft yahei&amp;quot;, &amp;quot;wenquanyi micro hei&amp;quot;, sans-serif; text-indent: 28px; font-size: 26px;&quot;&gt;⇌&amp;nbsp;&lt;/span&gt;H₂CO₃&lt;/span&gt;" style="text;whiteSpace=wrap;html=1;fontSize=26;labelBackgroundColor=default;align=left;" vertex="1" parent="1">
          <mxGeometry x="280" y="110" width="210" height="40" as="geometry" />
        </mxCell>
        <mxCell id="AWVnZwkp75dp_-weQAZT-4" value="&lt;span style=&quot;color: rgb(51 , 51 , 51) ; font-family: &amp;#34;helvetica neue&amp;#34; , &amp;#34;helvetica&amp;#34; , &amp;#34;arial&amp;#34; , sans-serif&quot;&gt;&lt;font style=&quot;font-size: 19px&quot;&gt;碳酸分步电离 一：&lt;/font&gt;&lt;/span&gt;&lt;span style=&quot;color: rgb(51 , 51 , 51) ; font-family: &amp;#34;helvetica neue&amp;#34; , &amp;#34;helvetica&amp;#34; , &amp;#34;arial&amp;#34; , &amp;#34;pingfang sc&amp;#34; , &amp;#34;hiragino sans gb&amp;#34; , &amp;#34;microsoft yahei&amp;#34; , &amp;#34;wenquanyi micro hei&amp;#34; , sans-serif ; text-indent: 28px&quot;&gt;H₂CO₃ ⇌ HCO₃&lt;/span&gt;&lt;span class=&quot;normal&quot; style=&quot;line-height: 0 ; position: relative ; vertical-align: baseline ; top: -0.5em ; margin-left: 2px ; color: rgb(51 , 51 , 51) ; cursor: default ; padding: 0px 2px ; font-family: &amp;#34;helvetica neue&amp;#34; , &amp;#34;helvetica&amp;#34; , &amp;#34;arial&amp;#34; , &amp;#34;pingfang sc&amp;#34; , &amp;#34;hiragino sans gb&amp;#34; , &amp;#34;microsoft yahei&amp;#34; , &amp;#34;wenquanyi micro hei&amp;#34; , sans-serif ; text-indent: 28px&quot;&gt;-&lt;/span&gt;&lt;span style=&quot;color: rgb(51 , 51 , 51) ; font-family: &amp;#34;helvetica neue&amp;#34; , &amp;#34;helvetica&amp;#34; , &amp;#34;arial&amp;#34; , &amp;#34;pingfang sc&amp;#34; , &amp;#34;hiragino sans gb&amp;#34; , &amp;#34;microsoft yahei&amp;#34; , &amp;#34;wenquanyi micro hei&amp;#34; , sans-serif ; text-indent: 28px&quot;&gt;&amp;nbsp;+ H&lt;sup&gt;+&lt;/sup&gt;&lt;/span&gt;&lt;span style=&quot;color: rgb(51 , 51 , 51) ; font-family: &amp;#34;helvetica neue&amp;#34; , &amp;#34;helvetica&amp;#34; , &amp;#34;arial&amp;#34; , sans-serif ; font-size: 26px&quot;&gt;&lt;font style=&quot;font-size: 26px&quot;&gt;&amp;nbsp;&lt;/font&gt;&lt;/span&gt;" style="text;whiteSpace=wrap;html=1;fontSize=26;align=left;labelBackgroundColor=default;" vertex="1" parent="1">
          <mxGeometry x="545" y="130" width="470" height="40" as="geometry" />
        </mxCell>
        <mxCell id="AWVnZwkp75dp_-weQAZT-5" value="&lt;span style=&quot;color: rgb(51 , 51 , 51) ; font-family: &amp;quot;helvetica neue&amp;quot; , &amp;quot;helvetica&amp;quot; , &amp;quot;arial&amp;quot; , sans-serif ; background-color: rgb(255 , 255 , 255)&quot;&gt;&lt;font style=&quot;font-size: 28px&quot;&gt;1。加碳酸氢钠会怎么样？&lt;/font&gt;&lt;/span&gt;" style="text;html=1;align=left;verticalAlign=middle;resizable=0;points=[];autosize=1;strokeColor=none;fillColor=none;fontSize=24;fontColor=#FFFFFF;" vertex="1" parent="1">
          <mxGeometry x="20" y="380" width="340" height="40" as="geometry" />
        </mxCell>
        <mxCell id="AWVnZwkp75dp_-weQAZT-9" value="&lt;span style=&quot;color: rgb(51 , 51 , 51) ; font-family: &amp;quot;helvetica neue&amp;quot; , &amp;quot;helvetica&amp;quot; , &amp;quot;arial&amp;quot; , sans-serif ; font-size: 14px ; background-color: rgb(255 , 255 , 255)&quot;&gt;&lt;br&gt;&lt;/span&gt;" style="text;html=1;align=left;verticalAlign=middle;resizable=0;points=[];autosize=1;strokeColor=none;fillColor=none;fontSize=46;fontColor=#FFFFFF;spacing=0;" vertex="1" parent="1">
          <mxGeometry x="280" y="850" width="20" height="70" as="geometry" />
        </mxCell>
        <mxCell id="AWVnZwkp75dp_-weQAZT-12" value="&lt;span style=&quot;color: rgb(51 , 51 , 51) ; font-family: &amp;quot;helvetica neue&amp;quot; , &amp;quot;helvetica&amp;quot; , &amp;quot;arial&amp;quot; , sans-serif ; font-size: 24px ; background-color: rgb(255 , 255 , 255)&quot;&gt;2.加入氢氧化钙&amp;nbsp;&lt;/span&gt;&lt;span style=&quot;color: rgb(51 , 51 , 51) ; font-family: &amp;quot;arial&amp;quot; , sans-serif ; font-size: 24px ; background-color: rgb(255 , 255 , 255)&quot;&gt;Ca(OH)₂&lt;/span&gt;&lt;span style=&quot;color: rgb(51 , 51 , 51) ; font-family: &amp;quot;helvetica neue&amp;quot; , &amp;quot;helvetica&amp;quot; , &amp;quot;arial&amp;quot; , sans-serif ; font-size: 24px ; background-color: rgb(255 , 255 , 255)&quot;&gt;&amp;nbsp;会怎么样？&lt;/span&gt;" style="text;html=1;align=left;verticalAlign=middle;resizable=0;points=[];autosize=1;strokeColor=none;fillColor=none;fontSize=24;fontColor=#FFFFFF;" vertex="1" parent="1">
          <mxGeometry x="35" y="820" width="410" height="30" as="geometry" />
        </mxCell>
        <mxCell id="AWVnZwkp75dp_-weQAZT-13" value="&lt;span style=&quot;color: rgb(51 , 51 , 51) ; font-family: &amp;quot;helvetica neue&amp;quot; , &amp;quot;helvetica&amp;quot; , &amp;quot;arial&amp;quot; , sans-serif ; font-size: 19px ; background-color: rgb(255 , 255 , 255)&quot;&gt;加入氢氧化钙，会同时增加 &lt;/span&gt;&lt;span style=&quot;font-family: &amp;quot;helvetica neue&amp;quot; , &amp;quot;helvetica&amp;quot; , &amp;quot;arial&amp;quot; , sans-serif ; font-size: 19px ; background-color: rgb(33 , 63 , 255)&quot;&gt;Ca&lt;sup&gt;2+&lt;/sup&gt;&lt;/span&gt;&lt;span style=&quot;color: rgb(51 , 51 , 51) ; font-family: &amp;quot;helvetica neue&amp;quot; , &amp;quot;helvetica&amp;quot; , &amp;quot;arial&amp;quot; , sans-serif ; background-color: rgb(255 , 255 , 255)&quot;&gt;&amp;nbsp;&lt;/span&gt;&lt;span style=&quot;color: rgb(51 , 51 , 51) ; font-family: &amp;quot;helvetica neue&amp;quot; , &amp;quot;helvetica&amp;quot; , &amp;quot;arial&amp;quot; , sans-serif ; background-color: rgb(255 , 255 , 255)&quot;&gt;和&lt;/span&gt;&lt;span style=&quot;font-family: &amp;quot;helvetica neue&amp;quot; , &amp;quot;helvetica&amp;quot; , &amp;quot;arial&amp;quot; , sans-serif ; font-size: 19px&quot;&gt;&lt;font color=&quot;#333333&quot; style=&quot;background-color: rgb(255 , 255 , 255)&quot;&gt;&amp;nbsp;&lt;/font&gt;&lt;span style=&quot;background-color: rgb(33 , 63 , 255)&quot;&gt;&lt;font&gt;OH&lt;/font&gt;&lt;sup&gt;-&lt;/sup&gt;&lt;/span&gt;&lt;font color=&quot;#333333&quot; style=&quot;background-color: rgb(255 , 255 , 255)&quot;&gt; 浓度，因为 &lt;/font&gt;&lt;span style=&quot;background-color: rgb(33 , 63 , 255)&quot;&gt;OH&lt;sup&gt;-&lt;/sup&gt;&lt;/span&gt;&lt;font color=&quot;#333333&quot; style=&quot;background-color: rgb(255 , 255 , 255)&quot;&gt; 浓度增加很显然&amp;nbsp;&lt;/font&gt;&lt;b style=&quot;background-color: rgb(255 , 255 , 255) ; color: rgb(51 , 51 , 51)&quot;&gt;PH值&amp;nbsp;&lt;/b&gt;&lt;font color=&quot;#333333&quot; style=&quot;background-color: rgb(255 , 255 , 255)&quot;&gt;会上升，在考虑对&amp;nbsp;&lt;/font&gt;&lt;b style=&quot;background-color: rgb(255 , 255 , 255) ; color: rgb(51 , 51 , 51)&quot;&gt;KH&amp;nbsp;&lt;/b&gt;&lt;font color=&quot;#333333&quot; style=&quot;background-color: rgb(255 , 255 , 255)&quot;&gt;的影响 ，从&lt;/font&gt;&lt;br style=&quot;font-size: 19px&quot;&gt;&lt;font color=&quot;#333333&quot; style=&quot;background-color: rgb(255 , 255 , 255)&quot;&gt;而增加了 &lt;/font&gt;&lt;font&gt;&lt;span style=&quot;background-color: rgb(33 , 63 , 255)&quot;&gt;OH&lt;sup&gt;-&lt;/sup&gt;&lt;/span&gt;&lt;font color=&quot;#333333&quot; style=&quot;background-color: rgb(255 , 255 , 255)&quot;&gt;&amp;nbsp; 浓度反应会向着生产&lt;/font&gt;&lt;/font&gt;&lt;/span&gt;&lt;span style=&quot;background-color: rgb(33 , 63 , 255)&quot;&gt;&lt;span style=&quot;font-family: &amp;quot;helvetica neue&amp;quot; , &amp;quot;helvetica&amp;quot; , &amp;quot;arial&amp;quot; , sans-serif&quot;&gt;CO&lt;/span&gt;&lt;sub style=&quot;font-family: &amp;quot;helvetica neue&amp;quot; , &amp;quot;helvetica&amp;quot; , &amp;quot;arial&amp;quot; , sans-serif&quot;&gt;3&lt;/sub&gt;&lt;sup style=&quot;font-family: &amp;quot;helvetica neue&amp;quot; , &amp;quot;helvetica&amp;quot; , &amp;quot;arial&amp;quot; , sans-serif&quot;&gt;2-&lt;/sup&gt;&lt;/span&gt;&lt;span style=&quot;font-family: &amp;quot;helvetica neue&amp;quot; , &amp;quot;helvetica&amp;quot; , &amp;quot;arial&amp;quot; , sans-serif ; font-size: 19px&quot;&gt;&lt;font&gt;&lt;font color=&quot;#333333&quot; style=&quot;background-color: rgb(255 , 255 , 255)&quot;&gt;的方向进行就是说 &lt;/font&gt;&lt;font&gt;&lt;span style=&quot;background-color: rgb(33 , 63 , 255)&quot;&gt;HCO&lt;sub&gt;3&lt;/sub&gt;&lt;sup&gt;-&lt;/sup&gt;&lt;/span&gt;&lt;font color=&quot;#333333&quot; style=&quot;background-color: rgb(255 , 255 , 255)&quot;&gt; 浓度会降低 ，同时&lt;/font&gt;&lt;/font&gt;&lt;/font&gt;&lt;br style=&quot;font-size: 19px&quot;&gt;&lt;font color=&quot;#333333&quot; style=&quot;background-color: rgb(255 , 255 , 255)&quot;&gt;&amp;nbsp;&lt;/font&gt;&lt;font&gt;&lt;span style=&quot;background-color: rgb(33 , 63 , 255)&quot;&gt;OH&lt;sup&gt;-&lt;/sup&gt;&lt;/span&gt;&lt;font color=&quot;#333333&quot; style=&quot;background-color: rgb(255 , 255 , 255)&quot;&gt; 浓度增加 &lt;/font&gt;&lt;font&gt;&lt;span style=&quot;background-color: rgb(33 , 63 , 255)&quot;&gt;HCO&lt;sub&gt;3&lt;/sub&gt;&lt;sup&gt;-&lt;/sup&gt;&lt;/span&gt;&lt;font color=&quot;#333333&quot; style=&quot;background-color: rgb(255 , 255 , 255)&quot;&gt; 的水解会减弱，但是一般认为碳酸氢根的水解程度要大&lt;/font&gt;&lt;/font&gt;&lt;/font&gt;&lt;br style=&quot;font-size: 19px&quot;&gt;&lt;font color=&quot;#333333&quot; style=&quot;background-color: rgb(255 , 255 , 255)&quot;&gt;于碳酸的电离程度，所以 &lt;/font&gt;&lt;/span&gt;&lt;span style=&quot;background-color: rgb(33 , 63 , 255)&quot;&gt;&lt;span style=&quot;font-family: &amp;quot;helvetica neue&amp;quot; , &amp;quot;helvetica&amp;quot; , &amp;quot;arial&amp;quot; , sans-serif&quot;&gt;HCO&lt;/span&gt;&lt;sub style=&quot;font-family: &amp;quot;helvetica neue&amp;quot; , &amp;quot;helvetica&amp;quot; , &amp;quot;arial&amp;quot; , sans-serif&quot;&gt;3&lt;/sub&gt;&lt;sup style=&quot;font-family: &amp;quot;helvetica neue&amp;quot; , &amp;quot;helvetica&amp;quot; , &amp;quot;arial&amp;quot; , sans-serif&quot;&gt;-&lt;/sup&gt;&lt;/span&gt;&lt;span style=&quot;font-family: &amp;quot;helvetica neue&amp;quot; , &amp;quot;helvetica&amp;quot; , &amp;quot;arial&amp;quot; , sans-serif ; font-size: 19px&quot;&gt;&lt;font color=&quot;#333333&quot; style=&quot;background-color: rgb(255 , 255 , 255)&quot;&gt;&amp;nbsp;的浓度会略微增加 ，即&amp;nbsp;&lt;/font&gt;&lt;b style=&quot;background-color: rgb(255 , 255 , 255) ; color: rgb(51 , 51 , 51)&quot;&gt;KH&amp;nbsp;&lt;/b&gt;&lt;font color=&quot;#333333&quot; style=&quot;background-color: rgb(255 , 255 , 255)&quot;&gt;略微上升但不会太多，钙离子浓度会不会增加呢 ，这&lt;/font&gt;&lt;br style=&quot;font-size: 19px&quot;&gt;&lt;font color=&quot;#333333&quot; style=&quot;background-color: rgb(255 , 255 , 255)&quot;&gt;个就要看情况了，因为 &lt;/font&gt;&lt;span style=&quot;background-color: rgb(33 , 63 , 255)&quot;&gt;&lt;font&gt;OH&lt;/font&gt;&lt;sup&gt;-&lt;/sup&gt;&lt;/span&gt;&lt;font color=&quot;#333333&quot; style=&quot;background-color: rgb(255 , 255 , 255)&quot;&gt; 浓度增加 ，同时会使碳酸根的浓度增加。假如，缸中&lt;/font&gt;&lt;/span&gt;&lt;span style=&quot;background-color: rgb(33 , 63 , 255)&quot;&gt;&lt;span style=&quot;font-family: &amp;quot;helvetica neue&amp;quot; , &amp;quot;helvetica&amp;quot; , &amp;quot;arial&amp;quot; , sans-serif&quot;&gt;Ca&lt;/span&gt;&lt;sup style=&quot;font-family: &amp;quot;helvetica neue&amp;quot; , &amp;quot;helvetica&amp;quot; , &amp;quot;arial&amp;quot; , sans-serif&quot;&gt;2+&lt;/sup&gt;&lt;/span&gt;&lt;span style=&quot;font-family: &amp;quot;helvetica neue&amp;quot; , &amp;quot;helvetica&amp;quot; , &amp;quot;arial&amp;quot; , sans-serif ; font-size: 19px&quot;&gt;&lt;font color=&quot;#333333&quot; style=&quot;background-color: rgb(255 , 255 , 255)&quot;&gt;浓度或&lt;/font&gt;&lt;/span&gt;&lt;span style=&quot;background-color: rgb(33 , 63 , 255)&quot;&gt;&lt;span style=&quot;font-family: &amp;quot;helvetica neue&amp;quot; , &amp;quot;helvetica&amp;quot; , &amp;quot;arial&amp;quot; , sans-serif&quot;&gt;HCO&lt;/span&gt;&lt;sub style=&quot;font-family: &amp;quot;helvetica neue&amp;quot; , &amp;quot;helvetica&amp;quot; , &amp;quot;arial&amp;quot; , sans-serif&quot;&gt;3&lt;/sub&gt;&lt;sup style=&quot;font-family: &amp;quot;helvetica neue&amp;quot; , &amp;quot;helvetica&amp;quot; , &amp;quot;arial&amp;quot; , sans-serif&quot;&gt;-&lt;/sup&gt;&lt;/span&gt;&lt;span style=&quot;font-family: &amp;quot;helvetica neue&amp;quot; , &amp;quot;helvetica&amp;quot; , &amp;quot;arial&amp;quot; , sans-serif ; font-size: 19px&quot;&gt;&lt;font color=&quot;#333333&quot; style=&quot;background-color: rgb(255 , 255 , 255)&quot;&gt;浓度已经&lt;/font&gt;&lt;br style=&quot;font-size: 19px&quot;&gt;&lt;font color=&quot;#333333&quot; style=&quot;background-color: rgb(255 , 255 , 255)&quot;&gt;饱和钙离子会以 &lt;/font&gt;&lt;font&gt;&lt;span style=&quot;background-color: rgb(33 , 63 , 255)&quot;&gt;CaCO&lt;sub&gt;3&lt;/sub&gt;&lt;b&gt;↓&lt;/b&gt;&lt;/span&gt;&lt;font color=&quot;#333333&quot; style=&quot;background-color: rgb(255 , 255 , 255)&quot;&gt; 形式沉淀，沉淀的钙是不会增加 &lt;/font&gt;&lt;font style=&quot;background-color: rgb(33 , 63 , 255)&quot;&gt;Ca&lt;sup&gt;2+&lt;/sup&gt;&lt;/font&gt;&lt;/font&gt;&lt;/span&gt;&lt;span style=&quot;color: rgb(51 , 51 , 51) ; font-family: &amp;quot;helvetica neue&amp;quot; , &amp;quot;helvetica&amp;quot; , &amp;quot;arial&amp;quot; , sans-serif ; background-color: rgb(255 , 255 , 255)&quot;&gt;&amp;nbsp;&lt;/span&gt;&lt;span style=&quot;color: rgb(51 , 51 , 51) ; font-family: &amp;quot;helvetica neue&amp;quot; , &amp;quot;helvetica&amp;quot; , &amp;quot;arial&amp;quot; , sans-serif ; background-color: rgb(255 , 255 , 255)&quot;&gt;浓&lt;/span&gt;&lt;span style=&quot;font-family: &amp;quot;helvetica neue&amp;quot; , &amp;quot;helvetica&amp;quot; , &amp;quot;arial&amp;quot; , sans-serif ; font-size: 19px&quot;&gt;&lt;font&gt;&lt;font color=&quot;#333333&quot; style=&quot;background-color: rgb(255 , 255 , 255)&quot;&gt;度的。&lt;/font&gt;&lt;/font&gt;&lt;/span&gt;" style="text;html=1;align=left;verticalAlign=middle;resizable=0;points=[];autosize=1;strokeColor=none;fillColor=none;fontSize=19;fontColor=#FFFFFF;" vertex="1" parent="1">
          <mxGeometry x="20" y="850" width="980" height="210" as="geometry" />
        </mxCell>
        <mxCell id="AWVnZwkp75dp_-weQAZT-14" value="&lt;span style=&quot;color: rgb(51 , 51 , 51) ; font-family: &amp;#34;helvetica neue&amp;#34; , &amp;#34;helvetica&amp;#34; , &amp;#34;arial&amp;#34; , sans-serif ; background-color: rgb(255 , 255 , 255)&quot;&gt;加入碳酸氢钠显而易见，会增加&lt;/span&gt;&lt;span style=&quot;color: rgb(51 , 51 , 51) ; font-family: &amp;#34;helvetica neue&amp;#34; , &amp;#34;helvetica&amp;#34; , &amp;#34;arial&amp;#34; , sans-serif ; background-color: rgb(255 , 255 , 255)&quot;&gt;&amp;nbsp;&lt;/span&gt;&lt;span style=&quot;font-family: &amp;#34;helvetica neue&amp;#34; , &amp;#34;helvetica&amp;#34; , &amp;#34;arial&amp;#34; , sans-serif&quot;&gt;&lt;span style=&quot;background-color: rgb(33 , 63 , 255)&quot;&gt;HCO&lt;sub&gt;3&lt;/sub&gt;&lt;sup&gt;-&lt;/sup&gt;&lt;/span&gt;&lt;font color=&quot;#333333&quot; style=&quot;background-color: rgb(255 , 255 , 255)&quot;&gt; 的浓度，所以 &lt;b&gt;KH&lt;/b&gt; 值上升了&lt;br&gt;&lt;/font&gt;&lt;br&gt;&lt;br&gt;&lt;br&gt;&lt;font color=&quot;#333333&quot; style=&quot;background-color: rgb(255 , 255 , 255)&quot;&gt;那么碳酸氢钠是怎么影响PH值的呢？原因就在于碳酸氢根的水解&lt;/font&gt;&lt;br&gt;&lt;font color=&quot;#333333&quot; style=&quot;background-color: rgb(255 , 255 , 255)&quot;&gt;当&amp;nbsp;&lt;/font&gt;&lt;/span&gt;&lt;span style=&quot;font-family: &amp;#34;helvetica neue&amp;#34; , &amp;#34;helvetica&amp;#34; , &amp;#34;arial&amp;#34; , sans-serif&quot;&gt;&lt;span style=&quot;background-color: rgb(33 , 63 , 255)&quot;&gt;HCO&lt;sub&gt;3&lt;/sub&gt;&lt;sup&gt;-&lt;/sup&gt;&lt;/span&gt;&lt;span style=&quot;color: rgb(51 , 51 , 51) ; background-color: rgb(255 , 255 , 255)&quot;&gt; 浓度增加的时候，化学平衡会向着渐入&amp;nbsp;&lt;/span&gt;&lt;span style=&quot;background-color: rgb(33 , 63 , 255)&quot;&gt;HCO&lt;sub&gt;3&lt;/sub&gt;&lt;sup&gt;-&lt;/sup&gt;&lt;/span&gt;&lt;font color=&quot;#333333&quot; style=&quot;background-color: rgb(255 , 255 , 255)&quot;&gt;&amp;nbsp; 浓度的&lt;/font&gt;&lt;br style=&quot;font-size: 19px&quot;&gt;&lt;span style=&quot;color: rgb(51 , 51 , 51) ; background-color: rgb(255 , 255 , 255)&quot;&gt;方向发生移动，就是说会生成更多的碳酸（实际就是二氧化碳溶于水）和 &lt;/span&gt;&lt;span style=&quot;background-color: rgb(33 , 63 , 255)&quot;&gt;OH&lt;sup&gt;-&lt;/sup&gt;&lt;/span&gt;&lt;font color=&quot;#333333&quot; style=&quot;background-color: rgb(255 , 255 , 255)&quot;&gt; 会变多，因为&amp;nbsp;&lt;/font&gt;&lt;span style=&quot;background-color: rgb(33 , 63 , 255)&quot;&gt;OH&lt;sup&gt;-&amp;nbsp;&lt;/sup&gt;&lt;/span&gt;&lt;font color=&quot;#333333&quot; style=&quot;background-color: rgb(255 , 255 , 255)&quot;&gt;多了，所以&lt;/font&gt;&lt;br style=&quot;font-size: 19px&quot;&gt;&lt;span style=&quot;color: rgb(51 , 51 , 51) ; background-color: rgb(255 , 255 , 255)&quot;&gt;&lt;b&gt;&amp;nbsp;PH值&amp;nbsp;&lt;/b&gt;会略微上升！再来看钙的溶解，这里要用到&lt;/span&gt;&lt;/span&gt;&lt;span style=&quot;color: rgb(51 , 51 , 51) ; font-family: &amp;#34;helvetica neue&amp;#34; , &amp;#34;helvetica&amp;#34; , &amp;#34;arial&amp;#34; , sans-serif ; background-color: rgb(255 , 255 , 255)&quot;&gt;&amp;nbsp;&lt;/span&gt;&lt;span style=&quot;font-family: &amp;#34;helvetica neue&amp;#34; , &amp;#34;helvetica&amp;#34; , &amp;#34;arial&amp;#34; , sans-serif&quot;&gt;&lt;span style=&quot;background-color: rgb(33 , 63 , 255)&quot;&gt;H₂CO₃&lt;/span&gt;&lt;/span&gt;&lt;span style=&quot;color: rgb(51 , 51 , 51) ; font-family: &amp;#34;helvetica neue&amp;#34; , &amp;#34;helvetica&amp;#34; , &amp;#34;arial&amp;#34; , sans-serif ; background-color: rgb(255 , 255 , 255)&quot;&gt;&amp;nbsp;&lt;/span&gt;&lt;span style=&quot;font-family: &amp;#34;helvetica neue&amp;#34; , &amp;#34;helvetica&amp;#34; , &amp;#34;arial&amp;#34; , sans-serif&quot;&gt;&lt;span style=&quot;color: rgb(51 , 51 , 51) ; background-color: rgb(255 , 255 , 255)&quot;&gt;的第二步电离。&lt;/span&gt;&lt;br style=&quot;font-size: 19px&quot;&gt;&lt;span style=&quot;color: rgb(51 , 51 , 51) ; background-color: rgb(255 , 255 , 255)&quot;&gt;从反应式看出当&amp;nbsp;&lt;/span&gt;&lt;span style=&quot;background-color: rgb(33 , 63 , 255)&quot;&gt;HCO&lt;sub&gt;3&lt;/sub&gt;&lt;sup&gt;-&lt;/sup&gt;&lt;/span&gt;&lt;/span&gt;&lt;span style=&quot;color: rgb(51 , 51 , 51) ; font-family: &amp;#34;helvetica neue&amp;#34; , &amp;#34;helvetica&amp;#34; , &amp;#34;arial&amp;#34; , sans-serif ; background-color: rgb(255 , 255 , 255)&quot;&gt;&amp;nbsp;&lt;/span&gt;&lt;span style=&quot;font-family: &amp;#34;helvetica neue&amp;#34; , &amp;#34;helvetica&amp;#34; , &amp;#34;arial&amp;#34; , sans-serif&quot;&gt;&lt;font color=&quot;#333333&quot; style=&quot;background-color: rgb(255 , 255 , 255)&quot;&gt;度增加时平衡会同时向减弱它的方向移动，也就是说同时也生成了更多的&lt;/font&gt;&lt;/span&gt;&lt;span style=&quot;color: rgb(51 , 51 , 51) ; font-family: &amp;#34;helvetica neue&amp;#34; , &amp;#34;helvetica&amp;#34; , &amp;#34;arial&amp;#34; , sans-serif ; background-color: rgb(255 , 255 , 255)&quot;&gt;&amp;nbsp;&lt;/span&gt;&lt;span style=&quot;font-family: &amp;#34;helvetica neue&amp;#34; , &amp;#34;helvetica&amp;#34; , &amp;#34;arial&amp;#34; , sans-serif&quot;&gt;&lt;font&gt;&lt;span style=&quot;background-color: rgb(33 , 63 , 255)&quot;&gt;CO&lt;sub&gt;3&lt;/sub&gt;&lt;sup&gt;2-&lt;/sup&gt;&lt;/span&gt;&lt;font color=&quot;#333333&quot; style=&quot;background-color: rgb(255 , 255 , 255)&quot;&gt; 离&lt;/font&gt;&lt;/font&gt;&lt;br style=&quot;font-size: 19px&quot;&gt;&lt;span style=&quot;color: rgb(51 , 51 , 51) ; background-color: rgb(255 , 255 , 255)&quot;&gt;子，大家知道碳酸根是难溶的，这个时候如果碳酸根离子或者钙离子处于饱和状态 ，就会出现碳酸钙的沉淀&lt;/span&gt;&lt;br style=&quot;font-size: 19px&quot;&gt;&lt;span style=&quot;color: rgb(51 , 51 , 51) ; background-color: rgb(255 , 255 , 255)&quot;&gt;，这就是所说的加入碳酸氢钠造成钙沉淀的压力。&lt;/span&gt;&lt;/span&gt;" style="text;html=1;align=left;verticalAlign=middle;resizable=0;points=[];autosize=1;strokeColor=none;fillColor=none;fontSize=19;fontColor=#FFFFFF;" vertex="1" parent="1">
          <mxGeometry x="20" y="475" width="920" height="300" as="geometry" />
        </mxCell>
        <mxCell id="AWVnZwkp75dp_-weQAZT-15" value="&lt;span style=&quot;color: rgb(51, 51, 51); font-family: &amp;quot;helvetica neue&amp;quot;, helvetica, arial, sans-serif; font-size: 24px; background-color: rgb(255, 255, 255);&quot;&gt;综上所述若果想提高KH就选用碳酸氢钠，若想调高PH就选用氢氧化钙，若想提高钙含量就用氯化钙&lt;/span&gt;" style="text;html=1;align=left;verticalAlign=middle;resizable=0;points=[];autosize=1;strokeColor=none;fillColor=none;fontSize=24;fontColor=#FFFFFF;fontStyle=0" vertex="1" parent="1">
          <mxGeometry x="20" y="1070" width="1070" height="30" as="geometry" />
        </mxCell>
        <mxCell id="AWVnZwkp75dp_-weQAZT-17" value="&lt;font style=&quot;font-size: 20px&quot;&gt;&lt;span style=&quot;color: rgb(51 , 51 , 51) ; font-family: &amp;#34;helvetica neue&amp;#34; , &amp;#34;helvetica&amp;#34; , &amp;#34;arial&amp;#34; , sans-serif ; background-color: rgb(255 , 255 , 255)&quot;&gt;海水中溶解的钙是碳酸氢钙&amp;nbsp;&lt;/span&gt;&lt;span style=&quot;font-family: &amp;#34;arial&amp;#34; , sans-serif ; background-color: rgb(33 , 63 , 255)&quot;&gt;Ca(HCO₃)₂&lt;/span&gt;&lt;span style=&quot;color: rgb(51 , 51 , 51) ; font-family: &amp;#34;helvetica neue&amp;#34; , &amp;#34;helvetica&amp;#34; , &amp;#34;arial&amp;#34; , sans-serif ; background-color: rgb(255 , 255 , 255)&quot;&gt;&amp;nbsp;，即平常说的 &lt;b&gt;硬水&amp;nbsp;&lt;/b&gt;。&lt;br&gt;那么碳酸氢钙中的碳酸氢根是哪里来的呢？分析如下请看几个化学式。&lt;/span&gt;&lt;/font&gt;" style="text;html=1;align=left;verticalAlign=middle;resizable=0;points=[];autosize=1;strokeColor=none;fillColor=none;fontSize=20;fontColor=#FFFFFF;" vertex="1" parent="1">
          <mxGeometry x="20" y="60" width="640" height="50" as="geometry" />
        </mxCell>
        <mxCell id="AWVnZwkp75dp_-weQAZT-24" value="&lt;span style=&quot;color: rgb(51, 51, 51); font-family: &amp;quot;helvetica neue&amp;quot;, helvetica, arial, sans-serif; font-size: 26px;&quot;&gt;HCO&lt;sub style=&quot;font-size: 26px&quot;&gt;3&lt;/sub&gt;&lt;sup style=&quot;font-size: 26px&quot;&gt;-&lt;/sup&gt; + H₂O&amp;nbsp;&lt;/span&gt;&lt;span style=&quot;color: rgb(51 , 51 , 51) ; font-family: &amp;quot;helvetica neue&amp;quot; , &amp;quot;helvetica&amp;quot; , &amp;quot;arial&amp;quot; , &amp;quot;pingfang sc&amp;quot; , &amp;quot;hiragino sans gb&amp;quot; , &amp;quot;microsoft yahei&amp;quot; , &amp;quot;wenquanyi micro hei&amp;quot; , sans-serif ; text-indent: 28px&quot;&gt;⇌&amp;nbsp;&lt;/span&gt;&lt;span style=&quot;color: rgb(51, 51, 51); font-family: &amp;quot;helvetica neue&amp;quot;, helvetica, arial, sans-serif; font-size: 26px;&quot;&gt;H₂CO₃ + OH&lt;sup style=&quot;font-size: 26px&quot;&gt;-&lt;/sup&gt;&amp;nbsp;&lt;/span&gt;" style="text;html=1;align=left;verticalAlign=middle;resizable=0;points=[];autosize=1;strokeColor=none;fillColor=none;fontSize=26;fontColor=#FFFFFF;labelBackgroundColor=default;" vertex="1" parent="1">
          <mxGeometry x="480" y="760" width="380" height="50" as="geometry" />
        </mxCell>
        <mxCell id="AWVnZwkp75dp_-weQAZT-27" value="&lt;span style=&quot;font-family: arial, sans-serif; color: rgb(34, 34, 34);&quot;&gt;&lt;font style=&quot;font-size: 19px&quot;&gt;碳酸氢钠电离方程式&lt;/font&gt;&lt;/span&gt;&lt;span style=&quot;font-family: arial, sans-serif; color: rgb(34, 34, 34);&quot;&gt;&lt;font style=&quot;font-size: 19px&quot;&gt;：&lt;/font&gt;&lt;/span&gt;&lt;span style=&quot;font-family: arial, sans-serif; font-size: 26px; color: rgb(34, 34, 34);&quot;&gt;NaHCO&lt;sub style=&quot;font-size: 26px&quot;&gt;3&amp;nbsp;&lt;/sub&gt;= Na&lt;sup style=&quot;font-size: 26px&quot;&gt;+&lt;/sup&gt;+HCO&lt;sub style=&quot;font-size: 26px&quot;&gt;3&lt;/sub&gt;&lt;sup style=&quot;font-size: 26px&quot;&gt;-&lt;/sup&gt;&lt;/span&gt;" style="text;html=1;align=left;verticalAlign=middle;resizable=0;points=[];autosize=1;strokeColor=none;fillColor=none;fontSize=26;fontColor=#FFFFFF;labelBackgroundColor=default;" vertex="1" parent="1">
          <mxGeometry x="20" y="520" width="490" height="50" as="geometry" />
        </mxCell>
        <mxCell id="AWVnZwkp75dp_-weQAZT-30" value="&lt;span style=&quot;color: rgb(51, 51, 51); font-family: &amp;quot;helvetica neue&amp;quot;, helvetica, arial, sans-serif;&quot;&gt;&lt;font style=&quot;font-size: 19px&quot;&gt;碳酸氢根的水解：&lt;/font&gt;&lt;/span&gt;&lt;span style=&quot;color: rgb(51, 51, 51); font-family: &amp;quot;helvetica neue&amp;quot;, helvetica, arial, sans-serif; font-size: 26px;&quot;&gt;HCO&lt;sub&gt;3&lt;/sub&gt;&lt;sup&gt;-&lt;/sup&gt; + H₂O&lt;/span&gt;&lt;span style=&quot;color: rgb(51, 51, 51); font-family: &amp;quot;helvetica neue&amp;quot;, helvetica, arial, sans-serif;&quot;&gt;&amp;nbsp;&lt;/span&gt;&lt;span style=&quot;color: rgb(51 , 51 , 51) ; font-family: &amp;quot;helvetica neue&amp;quot; , &amp;quot;helvetica&amp;quot; , &amp;quot;arial&amp;quot; , &amp;quot;pingfang sc&amp;quot; , &amp;quot;hiragino sans gb&amp;quot; , &amp;quot;microsoft yahei&amp;quot; , &amp;quot;wenquanyi micro hei&amp;quot; , sans-serif ; text-indent: 28px&quot;&gt;⇌&amp;nbsp;&lt;/span&gt;&lt;span style=&quot;color: rgb(51, 51, 51); font-family: &amp;quot;helvetica neue&amp;quot;, helvetica, arial, sans-serif; font-size: 26px;&quot;&gt;H₂CO₃ + OH&lt;sup&gt;-&lt;/sup&gt;&amp;nbsp;&lt;/span&gt;" style="text;html=1;align=left;verticalAlign=middle;resizable=0;points=[];autosize=1;strokeColor=none;fillColor=none;fontSize=26;fontColor=#FFFFFF;labelBackgroundColor=default;" vertex="1" parent="1">
          <mxGeometry x="510" y="520" width="520" height="50" as="geometry" />
        </mxCell>
        <mxCell id="AWVnZwkp75dp_-weQAZT-32" value="&lt;span style=&quot;color: rgb(0, 0, 0); font-size: 19px; background-color: rgb(255, 255, 255);&quot;&gt;碳酸氢钠不能和水反应的，但是碳酸氢根可以在水里电离、水解，而且水解的倾向大于电离的倾向。&lt;/span&gt;" style="text;html=1;align=left;verticalAlign=middle;resizable=0;points=[];autosize=1;strokeColor=none;fillColor=none;fontSize=19;fontColor=#FFFFFF;" vertex="1" parent="1">
          <mxGeometry x="20" y="420" width="850" height="30" as="geometry" />
        </mxCell>
        <mxCell id="AWVnZwkp75dp_-weQAZT-35" value="&lt;span style=&quot;color: rgb(51, 51, 51); font-family: &amp;quot;helvetica neue&amp;quot;, helvetica, arial, sans-serif;&quot;&gt;&lt;font style=&quot;font-size: 19px&quot;&gt;碳酸氢根的水解：&lt;/font&gt;&lt;/span&gt;&lt;span style=&quot;color: rgb(51, 51, 51); font-family: &amp;quot;helvetica neue&amp;quot;, helvetica, arial, sans-serif; font-size: 26px;&quot;&gt;HCO&lt;sub&gt;3&lt;/sub&gt;&lt;sup&gt;-&lt;/sup&gt; + H₂O&lt;/span&gt;&lt;span style=&quot;color: rgb(51, 51, 51); font-family: &amp;quot;helvetica neue&amp;quot;, helvetica, arial, sans-serif;&quot;&gt;&amp;nbsp;&lt;/span&gt;&lt;span style=&quot;color: rgb(51 , 51 , 51) ; font-family: &amp;quot;helvetica neue&amp;quot; , &amp;quot;helvetica&amp;quot; , &amp;quot;arial&amp;quot; , &amp;quot;pingfang sc&amp;quot; , &amp;quot;hiragino sans gb&amp;quot; , &amp;quot;microsoft yahei&amp;quot; , &amp;quot;wenquanyi micro hei&amp;quot; , sans-serif ; text-indent: 28px&quot;&gt;⇌&amp;nbsp;&lt;/span&gt;&lt;span style=&quot;color: rgb(51, 51, 51); font-family: &amp;quot;helvetica neue&amp;quot;, helvetica, arial, sans-serif; font-size: 26px;&quot;&gt;H₂CO₃ + OH&lt;sup&gt;-&lt;/sup&gt;&amp;nbsp;&lt;/span&gt;" style="text;html=1;align=left;verticalAlign=middle;resizable=0;points=[];autosize=1;strokeColor=none;fillColor=none;fontSize=26;fontColor=#FFFFFF;labelBackgroundColor=default;" vertex="1" parent="1">
          <mxGeometry x="100" y="280" width="520" height="50" as="geometry" />
        </mxCell>
        <mxCell id="AWVnZwkp75dp_-weQAZT-36" value="&lt;span style=&quot;color: rgb(51 , 51 , 51) ; font-family: &amp;#34;helvetica neue&amp;#34; , &amp;#34;helvetica&amp;#34; , &amp;#34;arial&amp;#34; , sans-serif&quot;&gt;&lt;font style=&quot;font-size: 19px&quot;&gt;碳酸分步电离 二：&lt;/font&gt;&lt;/span&gt;&lt;span style=&quot;color: rgb(51 , 51 , 51) ; font-family: &amp;#34;helvetica neue&amp;#34; , &amp;#34;helvetica&amp;#34; , &amp;#34;arial&amp;#34; , &amp;#34;pingfang sc&amp;#34; , &amp;#34;hiragino sans gb&amp;#34; , &amp;#34;microsoft yahei&amp;#34; , &amp;#34;wenquanyi micro hei&amp;#34; , sans-serif ; text-indent: 28px ; font-size: 26px&quot;&gt;HCO₃&lt;sup style=&quot;font-size: 26px&quot;&gt;-&lt;/sup&gt; ⇌&amp;nbsp;&lt;/span&gt;&lt;span style=&quot;color: rgb(51 , 51 , 51) ; font-family: &amp;#34;helvetica neue&amp;#34; , &amp;#34;helvetica&amp;#34; , &amp;#34;arial&amp;#34; , &amp;#34;pingfang sc&amp;#34; , &amp;#34;hiragino sans gb&amp;#34; , &amp;#34;microsoft yahei&amp;#34; , &amp;#34;wenquanyi micro hei&amp;#34; , sans-serif ; font-size: 26px ; text-indent: 28px&quot;&gt;CO&lt;/span&gt;&lt;span style=&quot;font-size: 26px ; line-height: 0 ; position: relative ; vertical-align: baseline ; bottom: -0.25em ; color: rgb(51 , 51 , 51) ; font-family: &amp;#34;helvetica neue&amp;#34; , &amp;#34;helvetica&amp;#34; , &amp;#34;arial&amp;#34; , &amp;#34;pingfang sc&amp;#34; , &amp;#34;hiragino sans gb&amp;#34; , &amp;#34;microsoft yahei&amp;#34; , &amp;#34;wenquanyi micro hei&amp;#34; , sans-serif ; text-indent: 28px&quot;&gt;3&lt;/span&gt;&lt;span class=&quot;normal&quot; style=&quot;line-height: 0 ; position: relative ; vertical-align: baseline ; top: -0.5em ; margin-left: 2px ; color: rgb(51 , 51 , 51) ; cursor: default ; padding: 0px 2px ; font-family: &amp;#34;helvetica neue&amp;#34; , &amp;#34;helvetica&amp;#34; , &amp;#34;arial&amp;#34; , &amp;#34;pingfang sc&amp;#34; , &amp;#34;hiragino sans gb&amp;#34; , &amp;#34;microsoft yahei&amp;#34; , &amp;#34;wenquanyi micro hei&amp;#34; , sans-serif ; text-indent: 28px&quot;&gt;&lt;font style=&quot;font-size: 20px&quot;&gt;2&lt;/font&gt;&lt;/span&gt;&lt;span class=&quot;normal&quot; style=&quot;font-size: 26px ; line-height: 0 ; position: relative ; vertical-align: baseline ; top: -0.5em ; margin-left: 2px ; color: rgb(51 , 51 , 51) ; cursor: default ; padding: 0px 2px ; font-family: &amp;#34;helvetica neue&amp;#34; , &amp;#34;helvetica&amp;#34; , &amp;#34;arial&amp;#34; , &amp;#34;pingfang sc&amp;#34; , &amp;#34;hiragino sans gb&amp;#34; , &amp;#34;microsoft yahei&amp;#34; , &amp;#34;wenquanyi micro hei&amp;#34; , sans-serif ; text-indent: 28px&quot;&gt;-&lt;/span&gt;&lt;span style=&quot;color: rgb(51 , 51 , 51) ; font-family: &amp;#34;helvetica neue&amp;#34; , &amp;#34;helvetica&amp;#34; , &amp;#34;arial&amp;#34; , &amp;#34;pingfang sc&amp;#34; , &amp;#34;hiragino sans gb&amp;#34; , &amp;#34;microsoft yahei&amp;#34; , &amp;#34;wenquanyi micro hei&amp;#34; , sans-serif ; font-size: 26px ; text-indent: 28px&quot;&gt;+H&lt;/span&gt;&lt;span class=&quot;normal&quot; style=&quot;font-size: 26px ; line-height: 0 ; position: relative ; vertical-align: baseline ; top: -0.5em ; margin-left: 2px ; color: rgb(51 , 51 , 51) ; cursor: default ; padding: 0px 2px ; font-family: &amp;#34;helvetica neue&amp;#34; , &amp;#34;helvetica&amp;#34; , &amp;#34;arial&amp;#34; , &amp;#34;pingfang sc&amp;#34; , &amp;#34;hiragino sans gb&amp;#34; , &amp;#34;microsoft yahei&amp;#34; , &amp;#34;wenquanyi micro hei&amp;#34; , sans-serif ; text-indent: 28px&quot;&gt;+&lt;/span&gt;&lt;span style=&quot;color: rgb(51 , 51 , 51) ; font-family: &amp;#34;helvetica neue&amp;#34; , &amp;#34;helvetica&amp;#34; , &amp;#34;arial&amp;#34; , sans-serif ; font-size: 26px&quot;&gt;&lt;font style=&quot;font-size: 26px&quot;&gt;&amp;nbsp;&lt;/font&gt;&lt;/span&gt;" style="text;whiteSpace=wrap;html=1;fontSize=26;align=left;labelBackgroundColor=default;" vertex="1" parent="1">
          <mxGeometry x="545" y="170" width="490" height="40" as="geometry" />
        </mxCell>
      </root>
    </mxGraphModel>
  </diagram>
</mxfile>
